<?xml version="1.0" encoding="UTF-8"?><svg id="Layer_2" xmlns="http://www.w3.org/2000/svg" viewBox="0 0 197.94 191.38"><defs><style>.cls-1{fill:#186c37;}.cls-2{fill:#53ba6b;}.cls-3{fill:#53b966;}</style></defs><g id="Layer_1-2"><g><path class="cls-3" d="M196.94,95.69c-7.76,54.36-55.67,95.69-111.7,95.69S-6.63,150.05,1.02,95.69C8.67,41.33,56.57,0,112.24,0c27.95,0,51.01,10.27,66.06,27.36-19.35,15.17-94.74,72.4-96.29,73.23-.84,.48-1.55,.96-2.39,.96h-.12c-1.08,0-2.27-.72-4.06-2.39-3.11-3.11-36.56-31.06-42.29-35.84-.6-.48-.84-.72-.84-.72,0,0-4.66-1.55-7.41,.24-1.67,.96-2.27,2.39-2.39,3.58-1.55,2.27-1.55,4.9-.72,6.45,16.73,30.82,48.62,89.6,49.7,91.75,.48,.84,3.94,7.65,8.12,7.65,2.99,0,5.38-2.15,11.35-9.08,4.18-4.78,75.26-89.6,98.92-118.27,7.05,14.57,9.68,31.9,7.05,50.77Z"/><path class="cls-2" d="M189.89,44.92c-23.65,28.67-94.74,113.49-98.92,118.27-5.97,6.93-8.36,9.08-11.35,9.08-4.18,0-7.65-6.81-8.12-7.65-1.07-2.15-32.97-60.93-49.7-91.75-.84-1.55-.84-4.18,.72-6.45-.24,.96-.12,1.67,.12,2.03,0,0,48.38,89.12,49.82,91.87,1.31,2.75,4.06,6.33,5.97,6.33s3.82-1.67,9.56-8.24c4.78-5.5,75.98-90.67,99.16-118.63,.96,1.67,1.91,3.46,2.75,5.14Z"/><path class="cls-1" d="M189.89,44.92c-23.65,28.67-94.74,113.49-98.92,118.27-5.97,6.93-8.36,9.08-11.35,9.08-4.18,0-7.65-6.81-8.12-7.65-1.07-2.15-32.97-60.93-49.7-91.75-.84-1.55-.84-4.18,.72-6.45-.24,.96-.12,1.67,.12,2.03,0,0,48.38,89.12,49.82,91.87,1.31,2.75,4.06,6.33,5.97,6.33s3.82-1.67,9.56-8.24c4.78-5.5,75.98-90.67,99.16-118.63,.96,1.67,1.91,3.46,2.75,5.14Z"/></g></g></svg>