<?xml version="1.0" standalone="no"?>
<!DOCTYPE svg PUBLIC "-//W3C//DTD SVG 20010904//EN"
 "http://www.w3.org/TR/2001/REC-SVG-20010904/DTD/svg10.dtd">
<svg version="1.0" xmlns="http://www.w3.org/2000/svg"
 width="1304.000000pt" height="275.000000pt" viewBox="0 0 1304.000000 275.000000"
 preserveAspectRatio="xMidYMid meet">

<g transform="translate(0.000000,275.000000) scale(0.100000,-0.100000)"
fill="#000000" stroke="none">
<path d="M2345 1595 c-10 -30 -16 -57 -13 -60 2 -3 1057 -4 2342 -3 l2338 3
-47 58 -47 57 -2277 0 -2277 0 -19 -55z"/>
<path d="M10707 972 c-288 -345 -541 -642 -561 -660 -21 -18 -42 -29 -51 -26
-21 8 -49 58 -331 579 -198 366 -250 454 -252 432 -3 -21 61 -148 265 -524
147 -272 278 -506 290 -519 36 -39 78 -32 127 19 40 42 371 434 839 995 219
264 235 286 225 308 -6 13 -14 24 -18 24 -4 0 -244 -283 -533 -628z"/>
<path d="M7885 1288 c-5 -16 -35 -155 -35 -162 0 -4 18 -6 40 -6 46 0 49 -10
20 -58 -20 -33 -39 -44 -99 -57 l-34 -7 7 56 7 56 -128 0 -129 0 -43 -317
c-24 -175 -50 -334 -58 -353 -60 -147 -266 -175 -324 -44 l-20 44 46 323 c25
178 45 329 45 335 0 9 -38 12 -128 12 l-128 0 -48 -346 c-54 -379 -54 -410 -6
-509 80 -165 298 -236 505 -165 123 42 233 141 287 257 28 58 37 101 67 317
l36 250 65 11 c138 23 173 64 216 253 13 59 24 110 24 115 0 13 -180 8 -185
-5z"/>
<path d="M536 1114 c-185 -40 -345 -164 -431 -335 -84 -164 -78 -389 14 -522
173 -252 591 -261 842 -16 l51 50 -101 70 -102 70 -41 -36 c-65 -59 -120 -80
-213 -80 -63 0 -89 5 -120 22 -86 45 -120 107 -120 218 0 67 4 89 28 136 32
66 99 132 165 162 36 16 67 22 127 22 69 0 86 -4 127 -27 25 -16 57 -41 70
-58 l23 -30 115 66 c63 36 116 67 118 69 9 8 -40 74 -84 115 -111 102 -290
142 -468 104z"/>
<path d="M4825 1123 c-188 -25 -387 -166 -468 -333 -54 -110 -70 -185 -65
-299 8 -159 66 -267 187 -348 88 -60 153 -78 281 -77 119 0 164 11 269 61 56
26 94 55 151 112 107 107 162 223 185 394 l6 47 -254 0 -255 0 -12 -87 c-6
-49 -13 -100 -16 -115 l-5 -27 117 -3 117 -3 -41 -42 c-55 -57 -113 -85 -188
-91 -82 -6 -122 2 -176 38 -170 113 -121 398 87 500 42 21 65 25 140 25 80 0
95 -3 137 -28 26 -15 54 -37 61 -48 15 -20 18 -19 121 56 58 42 106 81 106 88
0 20 -96 104 -151 131 -92 45 -222 64 -334 49z"/>
<path d="M6247 1115 c-271 -56 -475 -287 -494 -559 -21 -301 201 -515 512
-492 100 7 169 27 259 74 65 34 186 133 186 153 0 5 -43 38 -97 73 l-96 65
-40 -34 c-69 -60 -122 -79 -212 -80 -63 0 -89 5 -120 22 -87 46 -125 113 -125
220 0 262 328 424 502 248 l43 -44 118 67 c64 37 117 69 117 72 0 18 -85 111
-130 143 -104 72 -279 102 -423 72z"/>
<path d="M1236 1078 c-10 -61 -136 -964 -136 -981 0 -16 12 -17 127 -15 l127
3 27 195 c15 107 28 196 28 198 2 6 360 1 364 -5 4 -7 -32 -278 -47 -365 l-6
-28 129 0 129 0 6 28 c9 43 136 963 136 983 0 18 -10 19 -125 19 -121 0 -125
-1 -130 -22 -2 -13 -14 -90 -25 -173 -11 -82 -23 -160 -25 -172 -5 -23 -7 -23
-190 -23 l-185 0 5 23 c2 12 14 90 25 172 11 83 23 160 25 173 5 22 5 22 -124
22 l-129 0 -6 -32z"/>
<path d="M2290 1100 c0 -5 -21 -154 -46 -332 -53 -372 -53 -415 -5 -513 145
-294 631 -240 786 87 33 69 38 95 80 393 25 176 47 332 50 348 l5 27 -130 0
c-72 0 -130 -2 -130 -4 0 -2 -20 -148 -45 -325 -47 -332 -56 -371 -107 -418
-98 -92 -261 -56 -284 62 -5 27 60 548 82 658 l6 27 -131 0 c-77 0 -131 -4
-131 -10z"/>
<path d="M3326 1098 c-2 -7 -34 -231 -71 -498 -36 -267 -69 -493 -71 -502 -5
-17 6 -18 125 -18 72 0 131 1 131 3 0 16 80 560 82 563 2 1 71 -125 153 -282
l150 -284 130 2 130 3 67 475 c36 261 69 492 72 513 l6 37 -129 0 -129 0 -5
-32 c-3 -18 -20 -139 -37 -268 -17 -129 -34 -243 -38 -252 -5 -12 -51 66 -157
267 l-149 285 -128 0 c-94 0 -130 -3 -132 -12z"/>
</g>
</svg>
